<?xml version="1.0" encoding="UTF-8"?>
<svg width="900" height="780" viewBox="0 0 900 780" xmlns="http://www.w3.org/2000/svg" font-family="ui-sans-serif, system-ui, -apple-system, sans-serif">

  <defs>
    <marker id="arrow" viewBox="0 0 10 10" refX="8" refY="5" markerWidth="5" markerHeight="5" orient="auto-start-reverse">
      <path d="M2 1L8 5L2 9" fill="none" stroke="context-stroke" stroke-width="1.5" stroke-linecap="round" stroke-linejoin="round"/>
    </marker>
  </defs>

  <!-- background -->
  <rect width="900" height="780" fill="#ffffff" rx="12"/>

  <!-- TITLE -->
  <text x="450" y="34" text-anchor="middle" font-size="16" font-weight="600" fill="#1e1e1e">Arquitetura Hexagonal — Codechella</text>
  <text x="450" y="54" text-anchor="middle" font-size="12" fill="#6b7280">Spring Boot 4 · WebFlux · R2DBC · DDD</text>

  <!-- ── ADAPTERS container ── -->
  <rect x="18" y="68" width="864" height="598" rx="14" fill="#f0fdf9" stroke="#0f6e56" stroke-width="1" stroke-dasharray="6 3"/>
  <text x="36" y="88" font-size="11" font-weight="600" fill="#0f6e56">adapters</text>

  <!-- ── APPLICATION container ── -->
  <rect x="188" y="100" width="524" height="444" rx="11" fill="#eff6ff" stroke="#185fa5" stroke-width="1" stroke-dasharray="5 3"/>
  <text x="206" y="118" font-size="11" font-weight="600" fill="#185fa5">application</text>

  <!-- ── DOMAIN container ── -->
  <rect x="288" y="132" width="324" height="338" rx="9" fill="#eeedfe" stroke="#534ab7" stroke-width="1" stroke-dasharray="4 3"/>
  <text x="306" y="150" font-size="11" font-weight="600" fill="#3c3489">domain  —  records puros, sem framework</text>

  <!-- ══ DOMAIN blocks ══ -->

  <!-- Event aggregate -->
  <rect x="302" y="162" width="296" height="72" rx="7" fill="#ddd9fc" stroke="#534ab7" stroke-width="0.8"/>
  <text x="450" y="182" text-anchor="middle" font-size="13" font-weight="600" fill="#26215c">Event  ·  EventType</text>
  <text x="450" y="200" text-anchor="middle" font-size="11" fill="#3c3489">EventRepositoryPort</text>
  <text x="450" y="216" text-anchor="middle" font-size="11" fill="#3c3489">GetTranslationAdapter  (OUT port)</text>

  <!-- GetTextTranslatedService -->
  <rect x="302" y="248" width="296" height="50" rx="7" fill="#ddd9fc" stroke="#534ab7" stroke-width="0.8"/>
  <text x="450" y="267" text-anchor="middle" font-size="13" font-weight="600" fill="#26215c">GetTextTranslatedService</text>
  <text x="450" y="284" text-anchor="middle" font-size="11" fill="#3c3489">LanguageTag  ·  delega para OUT port</text>

  <!-- Ticket aggregate -->
  <rect x="302" y="314" width="296" height="72" rx="7" fill="#ddd9fc" stroke="#534ab7" stroke-width="0.8"/>
  <text x="450" y="334" text-anchor="middle" font-size="13" font-weight="600" fill="#26215c">Ticket  ·  Sales  ·  Order  ·  Type</text>
  <text x="450" y="352" text-anchor="middle" font-size="11" fill="#3c3489">TicketRepositoryPort</text>
  <text x="450" y="368" text-anchor="middle" font-size="11" fill="#3c3489">createTicketWithPurchase()</text>

  <!-- domain internal arrow: service → OUT port -->
  <line x1="450" y1="248" x2="450" y2="236" stroke="#7f77dd" stroke-width="1" stroke-dasharray="4 3" marker-end="url(#arrow)"/>

  <!-- ══ USE CASES (vertical labels) ══ -->

  <!-- Event use cases -->
  <rect x="198" y="162" width="96" height="158" rx="7" fill="#dbeafe" stroke="#185fa5" stroke-width="0.8"/>
  <text x="246" y="242" text-anchor="middle" font-size="12" font-weight="600" fill="#0c447c" transform="rotate(-90,246,242)">Event use cases  (7)</text>

  <!-- Ticket use cases -->
  <rect x="198" y="334" width="96" height="130" rx="7" fill="#dbeafe" stroke="#185fa5" stroke-width="0.8"/>
  <text x="246" y="399" text-anchor="middle" font-size="12" font-weight="600" fill="#0c447c" transform="rotate(-90,246,399)">Ticket use cases  (7)</text>

  <!-- use cases → domain ports -->
  <line x1="294" y1="220" x2="300" y2="220" stroke="#378add" stroke-width="1.3" marker-end="url(#arrow)"/>
  <line x1="294" y1="380" x2="300" y2="380" stroke="#378add" stroke-width="1.3" marker-end="url(#arrow)"/>

  <!-- ══ ADAPTERS IN — left column ══ -->

  <!-- HTTP Client -->
  <rect x="28" y="210" width="100" height="36" rx="7" fill="#f3f4f6" stroke="#9ca3af" stroke-width="0.8"/>
  <text x="78" y="228" text-anchor="middle" font-size="12" font-weight="600" fill="#374151">HTTP client</text>

  <!-- EventController -->
  <rect x="28" y="264" width="100" height="52" rx="7" fill="#ccfbef" stroke="#0f6e56" stroke-width="0.8"/>
  <text x="78" y="283" text-anchor="middle" font-size="13" font-weight="600" fill="#085041">Event</text>
  <text x="78" y="300" text-anchor="middle" font-size="11" fill="#0f6e56">Controller</text>

  <!-- TicketController -->
  <rect x="28" y="334" width="100" height="52" rx="7" fill="#ccfbef" stroke="#0f6e56" stroke-width="0.8"/>
  <text x="78" y="353" text-anchor="middle" font-size="13" font-weight="600" fill="#085041">Ticket</text>
  <text x="78" y="370" text-anchor="middle" font-size="11" fill="#0f6e56">Controller</text>

  <!-- REST Mappers + DTOs -->
  <rect x="28" y="404" width="100" height="52" rx="7" fill="#ccfbef" stroke="#0f6e56" stroke-width="0.8"/>
  <text x="78" y="422" text-anchor="middle" font-size="12" font-weight="600" fill="#085041">REST Mappers</text>
  <text x="78" y="439" text-anchor="middle" font-size="11" fill="#0f6e56">DTOs · records</text>

  <!-- client → controller arrows -->
  <line x1="78" y1="246" x2="78" y2="262" stroke="#6b7280" stroke-width="1" marker-end="url(#arrow)"/>
  <line x1="128" y1="288" x2="196" y2="234" stroke="#1d9e75" stroke-width="1.3" marker-end="url(#arrow)"/>
  <line x1="128" y1="360" x2="196" y2="390" stroke="#1d9e75" stroke-width="1.3" marker-end="url(#arrow)"/>

  <!-- ══ ADAPTERS OUT — right column ══ -->

  <!-- PostgreSQL -->
  <rect x="772" y="290" width="100" height="36" rx="7" fill="#f3f4f6" stroke="#9ca3af" stroke-width="0.8"/>
  <text x="822" y="308" text-anchor="middle" font-size="12" font-weight="600" fill="#374151">PostgreSQL</text>

  <!-- DeepL API -->
  <rect x="772" y="490" width="100" height="36" rx="7" fill="#f3f4f6" stroke="#9ca3af" stroke-width="0.8"/>
  <text x="822" y="508" text-anchor="middle" font-size="12" font-weight="600" fill="#374151">DeepL API</text>

  <!-- EventAdapterRepository -->
  <rect x="720" y="162" width="144" height="52" rx="7" fill="#ccfbef" stroke="#0f6e56" stroke-width="0.8"/>
  <text x="792" y="181" text-anchor="middle" font-size="12" font-weight="600" fill="#085041">EventAdapterRepository</text>
  <text x="792" y="198" text-anchor="middle" font-size="11" fill="#0f6e56">implements EventRepositoryPort</text>

  <!-- EventEntity + EventRepositoryMapper -->
  <rect x="720" y="230" width="144" height="52" rx="7" fill="#ccfbef" stroke="#0f6e56" stroke-width="0.8"/>
  <text x="792" y="249" text-anchor="middle" font-size="12" font-weight="600" fill="#085041">EventEntity</text>
  <text x="792" y="266" text-anchor="middle" font-size="11" fill="#0f6e56">EventRepositoryMapper</text>

  <!-- TicketAdapterRepository -->
  <rect x="720" y="330" width="144" height="52" rx="7" fill="#ccfbef" stroke="#0f6e56" stroke-width="0.8"/>
  <text x="792" y="349" text-anchor="middle" font-size="12" font-weight="600" fill="#085041">TicketAdapterRepository</text>
  <text x="792" y="366" text-anchor="middle" font-size="11" fill="#0f6e56">implements TicketRepositoryPort</text>

  <!-- TicketEntity + SalesEntity + TicketRepositoryMapper -->
  <rect x="720" y="398" width="144" height="64" rx="7" fill="#ccfbef" stroke="#0f6e56" stroke-width="0.8"/>
  <text x="792" y="416" text-anchor="middle" font-size="12" font-weight="600" fill="#085041">TicketEntity  ·  SalesEntity</text>
  <text x="792" y="433" text-anchor="middle" font-size="11" fill="#0f6e56">TicketRepositoryMapper</text>
  <text x="792" y="450" text-anchor="middle" font-size="11" fill="#0f6e56">SalesRepository</text>

  <!-- TranslationRestClient -->
  <rect x="720" y="480" width="144" height="52" rx="7" fill="#ccfbef" stroke="#0f6e56" stroke-width="0.8"/>
  <text x="792" y="499" text-anchor="middle" font-size="12" font-weight="600" fill="#085041">TranslationRestClient</text>
  <text x="792" y="516" text-anchor="middle" font-size="11" fill="#0f6e56">implements GetTranslationAdapter</text>

  <!-- domain OUT ports → adapters (dashed purple) -->
  <path d="M598 198 L706 198 L706 188 L718 188" fill="none" stroke="#7f77dd" stroke-width="1.3" stroke-dasharray="5 3" marker-end="url(#arrow)"/>
  <path d="M598 352 L706 352 L706 356 L718 356" fill="none" stroke="#7f77dd" stroke-width="1.3" stroke-dasharray="5 3" marker-end="url(#arrow)"/>
  <path d="M598 216 L660 216 L660 506 L718 506" fill="none" stroke="#7f77dd" stroke-width="1.3" stroke-dasharray="5 3" marker-end="url(#arrow)"/>

  <!-- adapter → entity+mapper -->
  <line x1="792" y1="214" x2="792" y2="228" stroke="#1d9e75" stroke-width="1" marker-end="url(#arrow)"/>
  <line x1="792" y1="382" x2="792" y2="396" stroke="#1d9e75" stroke-width="1" marker-end="url(#arrow)"/>

  <!-- entity → postgres -->
  <line x1="792" y1="282" x2="792" y2="288" stroke="#9ca3af" stroke-width="0.8" marker-end="url(#arrow)"/>
  <line x1="792" y1="326" x2="792" y2="328" stroke="#9ca3af" stroke-width="0.8" marker-end="url(#arrow)"/>
  <line x1="864" y1="430" x2="870" y2="430" stroke="#9ca3af" stroke-width="0.8"/>
  <line x1="870" y1="430" x2="870" y2="308" stroke="#9ca3af" stroke-width="0.8"/>
  <line x1="870" y1="308" x2="874" y2="308" stroke="#9ca3af" stroke-width="0.8" marker-end="url(#arrow)"/>

  <!-- translation → deepL -->
  <line x1="864" y1="506" x2="870" y2="506" stroke="#9ca3af" stroke-width="0.8" marker-end="url(#arrow)"/>

  <!-- ══ LEGEND ══ -->
  <rect x="18" y="680" width="864" height="90" rx="10" fill="#f9fafb" stroke="#d1d5db" stroke-width="0.8"/>
  <text x="450" y="700" text-anchor="middle" font-size="12" font-weight="600" fill="#1e1e1e">Legenda</text>

  <rect x="36" y="712" width="12" height="12" rx="2" fill="#ddd9fc" stroke="#534ab7" stroke-width="0.8"/>
  <text x="54" y="722" font-size="11" fill="#374151">domain — records puros, sem dependência de framework</text>

  <rect x="36" y="730" width="12" height="12" rx="2" fill="#dbeafe" stroke="#185fa5" stroke-width="0.8"/>
  <text x="54" y="740" font-size="11" fill="#374151">application — use cases, orquestração de negócio</text>

  <rect x="36" y="748" width="12" height="12" rx="2" fill="#ccfbef" stroke="#0f6e56" stroke-width="0.8"/>
  <text x="54" y="758" font-size="11" fill="#374151">adapters — controllers REST, repositories R2DBC, clients externos</text>

  <line x1="440" y1="718" x2="480" y2="718" stroke="#7f77dd" stroke-width="1.3" stroke-dasharray="5 3" marker-end="url(#arrow)"/>
  <text x="488" y="722" font-size="11" fill="#374151">porta de saída (domain define, adapter implementa)</text>

  <line x1="440" y1="736" x2="480" y2="736" stroke="#378add" stroke-width="1.3" marker-end="url(#arrow)"/>
  <text x="488" y="740" font-size="11" fill="#374151">use case → port (injeção de dependência)</text>

  <line x1="440" y1="754" x2="480" y2="754" stroke="#1d9e75" stroke-width="1.3" marker-end="url(#arrow)"/>
  <text x="488" y="758" font-size="11" fill="#374151">fluxo interno do adapter (entity / mapper)</text>

</svg>
